<svg width="20" height="17" viewBox="0 0 20 17" fill="none" xmlns="http://www.w3.org/2000/svg">
<path d="M1 4.70288V12.3029C1 13.423 1 13.9827 1.21799 14.4106C1.40973 14.7869 1.71547 15.0932 2.0918 15.2849C2.5192 15.5027 3.07899 15.5027 4.19691 15.5027H15.8031C16.921 15.5027 17.48 15.5027 17.9074 15.2849C18.2837 15.0932 18.5905 14.7869 18.7822 14.4106C19 13.9832 19 13.4242 19 12.3063V4.6996C19 3.58168 19 3.02189 18.7822 2.59448C18.5905 2.21816 18.2837 1.91242 17.9074 1.72067C17.4796 1.50269 16.9203 1.50269 15.8002 1.50269H4.2002C3.08009 1.50269 2.51962 1.50269 2.0918 1.72067C1.71547 1.91242 1.40973 2.21816 1.21799 2.59448C1 3.02231 1 3.58278 1 4.70288Z" fill="white"/>
<path d="M2 2.50269L8.10764 7.11495L8.10967 7.11664C8.78785 7.61397 9.12714 7.86278 9.49876 7.9589C9.82723 8.04386 10.1725 8.04386 10.501 7.9589C10.8729 7.8627 11.2132 7.61316 11.8926 7.11495C11.8926 7.11495 15.8101 4.10863 18 2.50269M1 12.3029V4.70288C1 3.58278 1 3.02231 1.21799 2.59448C1.40973 2.21816 1.71547 1.91242 2.0918 1.72067C2.51962 1.50269 3.08009 1.50269 4.2002 1.50269H15.8002C16.9203 1.50269 17.4796 1.50269 17.9074 1.72067C18.2837 1.91242 18.5905 2.21816 18.7822 2.59448C19 3.02189 19 3.58168 19 4.6996V12.3063C19 13.4242 19 13.9832 18.7822 14.4106C18.5905 14.7869 18.2837 15.0932 17.9074 15.2849C17.48 15.5027 16.921 15.5027 15.8031 15.5027H4.19691C3.07899 15.5027 2.5192 15.5027 2.0918 15.2849C1.71547 15.0932 1.40973 14.7869 1.21799 14.4106C1 13.9827 1 13.423 1 12.3029Z" stroke="#0C71C3" stroke-width="2" stroke-linecap="round" stroke-linejoin="round"/>
</svg>
