<svg width="24" height="25" viewBox="0 0 24 25" fill="none" xmlns="http://www.w3.org/2000/svg">
<path d="M11.8474 2.95194C14.9902 2.95194 15.4188 2.95194 16.7045 2.95194C17.8474 2.95194 18.4188 3.23765 18.8474 3.38051C19.4188 3.66622 19.8474 3.80908 20.2759 4.23765C20.7045 4.66623 20.9902 5.0948 21.1331 5.66623C21.2759 6.0948 21.4188 6.66622 21.5617 7.80908C21.5617 9.0948 21.5617 9.38051 21.5617 12.6662C21.5617 15.9519 21.5617 16.2377 21.5617 17.5234C21.5617 18.6662 21.2759 19.2377 21.1331 19.6662C20.8474 20.2377 20.7045 20.6662 20.2759 21.0948C19.8474 21.5234 19.4188 21.8091 18.8474 21.9519C18.4188 22.0948 17.8474 22.2376 16.7045 22.3805C15.4188 22.3805 15.1331 22.3805 11.8474 22.3805C8.56166 22.3805 8.27595 22.3805 6.99023 22.3805C5.84738 22.3805 5.27595 22.0948 4.84738 21.9519C4.27595 21.6662 3.84738 21.5234 3.41881 21.0948C2.99024 20.6662 2.70452 20.2377 2.56166 19.6662C2.41881 19.2377 2.27595 18.6662 2.13309 17.5234C2.13309 16.2377 2.13309 15.9519 2.13309 12.6662C2.13309 9.38051 2.13309 9.0948 2.13309 7.80908C2.13309 6.66622 2.41881 6.0948 2.56166 5.66623C2.84738 5.0948 2.99024 4.66623 3.41881 4.23765C3.84738 3.80908 4.27595 3.52337 4.84738 3.38051C5.27595 3.23765 5.84738 3.0948 6.99023 2.95194C8.27595 2.95194 8.70452 2.95194 11.8474 2.95194ZM11.8474 0.809082C8.56166 0.809082 8.27595 0.809082 6.99023 0.809082C5.70452 0.809082 4.84738 1.0948 4.13309 1.38051C3.41881 1.66623 2.70452 2.0948 1.99024 2.80908C1.27595 3.52337 0.990235 4.0948 0.561664 4.95194C0.275949 5.66623 0.133092 6.52337 -0.00976562 7.80908C-0.00976562 9.0948 -0.00976562 9.52337 -0.00976562 12.6662C-0.00976562 15.9519 -0.00976562 16.2377 -0.00976562 17.5234C-0.00976562 18.8091 0.275949 19.6662 0.561664 20.3805C0.847378 21.0948 1.27595 21.8091 1.99024 22.5234C2.70452 23.2377 3.27595 23.5234 4.13309 23.9519C4.84738 24.2377 5.70452 24.3805 6.99023 24.5234C8.27595 24.5234 8.70452 24.5234 11.8474 24.5234C14.9902 24.5234 15.4188 24.5234 16.7045 24.5234C17.9902 24.5234 18.8474 24.2377 19.5617 23.9519C20.2759 23.6662 20.9902 23.2377 21.7045 22.5234C22.4188 21.8091 22.7045 21.2377 23.1331 20.3805C23.4188 19.6662 23.5617 18.8091 23.7045 17.5234C23.7045 16.2377 23.7045 15.8091 23.7045 12.6662C23.7045 9.52337 23.7045 9.0948 23.7045 7.80908C23.7045 6.52337 23.4188 5.66623 23.1331 4.95194C22.8474 4.23765 22.4188 3.52337 21.7045 2.80908C20.9902 2.0948 20.4188 1.80908 19.5617 1.38051C18.8474 1.0948 17.9902 0.951939 16.7045 0.809082C15.4188 0.809082 15.1331 0.809082 11.8474 0.809082Z" fill="#F5F5F5"/>
<path d="M11.8474 6.52337C8.41881 6.52337 5.70452 9.23765 5.70452 12.6662C5.70452 16.0948 8.41881 18.8091 11.8474 18.8091C15.2759 18.8091 17.9902 16.0948 17.9902 12.6662C17.9902 9.23765 15.2759 6.52337 11.8474 6.52337ZM11.8474 16.6662C9.70452 16.6662 7.84738 14.9519 7.84738 12.6662C7.84738 10.5234 9.56166 8.66622 11.8474 8.66622C13.9902 8.66622 15.8474 10.3805 15.8474 12.6662C15.8474 14.8091 13.9902 16.6662 11.8474 16.6662Z" fill="#F5F5F5"/>
<path d="M18.1331 7.80908C18.9221 7.80908 19.5617 7.16949 19.5617 6.38051C19.5617 5.59153 18.9221 4.95194 18.1331 4.95194C17.3441 4.95194 16.7045 5.59153 16.7045 6.38051C16.7045 7.16949 17.3441 7.80908 18.1331 7.80908Z" fill="#F5F5F5"/>
</svg>
