<svg width="23" height="24" viewBox="0 0 23 24" fill="none" xmlns="http://www.w3.org/2000/svg">
<path d="M5.13505 23.7671H0.277897V8.48134H5.13505V23.7671ZM2.70648 6.33848C1.13505 6.33848 -0.0078125 5.19563 -0.0078125 3.6242C-0.0078125 2.05277 1.2779 0.909912 2.70648 0.909912C4.2779 0.909912 5.42076 2.05277 5.42076 3.6242C5.42076 5.19563 4.2779 6.33848 2.70648 6.33848ZM22.8493 23.7671H17.9922V15.4813C17.9922 13.0528 16.9922 12.3385 15.5636 12.3385C14.135 12.3385 12.7065 13.4813 12.7065 15.6242V23.7671H7.84933V8.48134H12.4208V10.6242C12.8493 9.6242 14.5636 8.05277 16.9922 8.05277C19.7065 8.05277 22.5636 9.6242 22.5636 14.3385V23.7671H22.8493Z" fill="#F5F5F5"/>
</svg>
