<svg width="20" height="21" viewBox="0 0 20 21" fill="none" xmlns="http://www.w3.org/2000/svg">
<path d="M7.50246 2.7599C7.19873 2.00059 6.46332 1.50269 5.64551 1.50269H2.89474C1.8483 1.50269 1 2.35078 1 3.39722C1 12.2919 8.21078 19.5027 17.1055 19.5027C18.1519 19.5027 19 18.6543 19 17.6079L19.0005 14.8566C19.0005 14.0388 18.5027 13.3035 17.7434 12.9998L15.1069 11.9456C14.4249 11.6728 13.6483 11.7956 13.0839 12.2659L12.4035 12.8334C11.6089 13.4956 10.4396 13.4429 9.7082 12.7115L7.79222 10.7937C7.06079 10.0623 7.00673 8.89402 7.66895 8.09937L8.23633 7.41898C8.70661 6.85464 8.83049 6.07784 8.55766 5.39578L7.50246 2.7599Z" fill="white" stroke="#0C71C3" stroke-width="2" stroke-linecap="round" stroke-linejoin="round"/>
</svg>
