<svg width="24" height="19" viewBox="0 0 24 19" fill="none" xmlns="http://www.w3.org/2000/svg">
<path d="M23.1355 2.53251C22.2783 2.96108 21.4212 3.10393 20.4212 3.24679C21.4212 2.67536 22.1355 1.81822 22.4212 0.675362C21.564 1.24679 20.564 1.53251 19.4212 1.81822C18.564 0.961077 17.2783 0.389648 15.9926 0.389648C12.9926 0.389648 10.7069 3.24679 11.4212 6.10393C7.56403 5.96108 4.13546 4.10393 1.70689 1.24679C0.421177 3.38965 1.13546 6.10393 3.13546 7.53251C2.42118 7.53251 1.70689 7.24679 0.992606 6.96108C0.992606 9.10394 2.56404 11.1039 4.70689 11.6754C3.99261 11.8182 3.27832 11.9611 2.56404 11.8182C3.13546 13.6754 4.84975 15.1039 6.99261 15.1039C5.27832 16.3896 2.70689 17.1039 0.27832 16.8182C2.42118 18.1039 4.84975 18.9611 7.42118 18.9611C16.1355 18.9611 20.9926 11.6754 20.7069 4.96108C21.7069 4.38965 22.564 3.53251 23.1355 2.53251Z" fill="#F5F5F5"/>
</svg>
