<svg width="24" height="16" viewBox="0 0 24 16" fill="none" xmlns="http://www.w3.org/2000/svg">
<path d="M22.9908 2.43077C22.7051 1.43077 21.9908 0.716483 20.9908 0.430769C19.2765 0.00219752 11.9908 0.00219727 11.9908 0.00219727C11.9908 0.00219727 4.84794 0.00219752 2.9908 0.430769C1.9908 0.716483 1.2765 1.43077 0.990788 2.43077C0.705074 4.28791 0.705078 8.0022 0.705078 8.0022C0.705078 8.0022 0.705082 11.7165 1.13365 13.5736C1.41937 14.5736 2.13365 15.2879 3.13365 15.5736C4.84793 16.0022 12.1336 16.0022 12.1336 16.0022C12.1336 16.0022 19.2765 16.0022 21.1336 15.5736C22.1336 15.2879 22.848 14.5736 23.1337 13.5736C23.5622 11.7165 23.5622 8.0022 23.5622 8.0022C23.5622 8.0022 23.5622 4.28791 22.9908 2.43077ZM9.84793 11.4308V4.57363L15.8479 8.0022L9.84793 11.4308Z" fill="#F5F5F5"/>
</svg>
